<?xml version="1.0" encoding="UTF-8"?>
<svg id="Capa_1" data-name="Capa 1" xmlns="http://www.w3.org/2000/svg" viewBox="0 0 263.9 221.91">
  <defs>
    <style>
      .cls-1 {
        fill: #fff;
      }
    </style>
  </defs>
  <path class="cls-1" d="M112.09,203.14l-.26-138.79L196.94,13.71c2.28,56.84,2.21,108.53.22,163.48l-85.07,25.95Z"/>
  <path class="cls-1" d="M102.63,203.14l-84.74-25.93c-1.69-55.15-1.63-107.5.01-163.32l84.62,49.71.11,139.54Z"/>
  <path class="cls-1" d="M206.25,181.09l.59-165.72,7.93,2.96.38,169.39c-35.4,10.95-71.62,26.05-108.43,34.19L.15,192.34,0,24.36c.58-2.11,2.2-8.07,3.92-8.07s6.08,0,5.46,0l.02,169.72c34.12,6.45,66.03,23.03,99.73,25.4,32.58-5.7,63.37-20.83,97.11-30.32Z"/>
  <path class="cls-1" d="M263.34,170.34c-.05,11.88-6.95,28.05-10,39.12-2.88-10.06-9.62-26.27-9.65-37.94l-.35-142.98h20.56s-.56,141.8-.56,141.8Z"/>
  <path class="cls-1" d="M263.13,20.14c-3.16,1.17-17.87.45-20.56-.42l3.15-17.19c.61-3.31,10.74-2.99,13.51-1.28,3.33,2.05,4.88,9.8,3.9,18.88Z"/>
</svg>